<?xml version="1.0" encoding="UTF-8"?>
<svg id="_レイヤー_1" data-name="レイヤー_1" xmlns="http://www.w3.org/2000/svg" version="1.1" viewBox="0 0 24 24">
  <!-- Generator: Adobe Illustrator 30.0.0, SVG Export Plug-In . SVG Version: 2.1.1 Build 123)  -->
  <defs>
    <style>
      .st0 {
        fill: #fff;
      }
    </style>
  </defs>
  <path class="st0" d="M13,1h-2v2h-2v2h-2v2h-2v2h-2v2H1v2h2v2h2v2h2v2h2v2h2v2h2v-2h2v-2h2v-2h2v-2h2v-2h2v-2h-2v-2h-2v-2h-2v-2h-2v-2h-2V1ZM13,3v2h2v2h2v2h2v2h2v2h-2v2h-2v2h-2v2h-2v2h-2v-2h-2v-2h-2v-2h-2v-2h-2v-2h2v-2h2v-2h2v-2h2v-2h2ZM13,7h-2v6h2v-6ZM13,15h-2v2h2v-2Z"/>
</svg>